<svg width="22" height="20" viewBox="0 0 22 20" fill="none" xmlns="http://www.w3.org/2000/svg"><path d="M17.7249 2.19253C16.9557 1.75286 16.0733 1.5 15.132 1.5C13.4711 1.5 11.9837 2.28521 11.0016 3.51648C10.0148 2.28521 8.52887 1.5 6.86573 1.5C5.92665 1.5 5.04594 1.75286 4.27495 2.19253C2.62077 3.14296 1.5 4.97027 1.5 7.07026C1.5 7.67145 1.5943 8.24802 1.76509 8.78742C2.68615 13.0828 11.0016 18.5 11.0016 18.5C11.0016 18.5 19.3116 13.0829 20.2339 8.78742C20.4047 8.24802 20.5 7.67067 20.5 7.07026C20.5 4.97106 19.3792 3.1443 17.7249 2.19253Z" stroke="#212C3A" stroke-width="2"/></svg>
