<svg width="20" height="18" viewBox="0 0 20 18" fill="none" xmlns="http://www.w3.org/2000/svg"><path d="M16.7249 1.19253C15.9557 0.752858 15.0733 0.5 14.132 0.5C12.4711 0.5 10.9837 1.28521 10.0016 2.51648C9.01485 1.28521 7.52887 0.5 5.86573 0.5C4.92665 0.5 4.04594 0.752858 3.27495 1.19253C1.62077 2.14296 0.5 3.97027 0.5 6.07025C0.5 6.67145 0.594297 7.24802 0.765088 7.78743C1.68615 12.0828 10.0016 17.5 10.0016 17.5C10.0016 17.5 18.3116 12.0829 19.2339 7.78743C19.4047 7.24802 19.5 6.67067 19.5 6.07025C19.5 3.97106 18.3792 2.1443 16.7249 1.19253Z" fill="#CA1016"/></svg>
