<svg xmlns="http://www.w3.org/2000/svg" width="15" height="15" fill="none"><circle cx="7.5" cy="7.5" r="7.5" fill="#77C81D"/><path fill="#fff" fill-rule="evenodd" d="M10.278 3.673v4.9l-.572.54-1.27-1.274-1.653 1.626L8.39 11.02H5.03a.526.526 0 0 1-.525-.525V3.673c0-.289.231-.525.525-.525h4.722c.289 0 .525.231.525.525Zm-1.05 1.05H5.555v.524h3.673v-.525ZM5.555 5.771h3.673v.524H5.555v-.524ZM9.228 6.82H5.555v.525h3.673V6.82Zm-3.673 1.05h1.05v.524h-1.05V7.87Zm2.1 1.573.786-.766L9.753 9.97l2.623-2.623.84.823-3.463 3.374-2.099-2.099Z" clip-rule="evenodd"/></svg>
